<svg width="25" height="24" viewBox="0 0 25 24" fill="none" xmlns="http://www.w3.org/2000/svg">
<path d="M24.0066 20.8789L23.7417 20.6456C22.9902 19.9772 22.3324 19.2107 21.7861 18.3667C21.1895 17.202 20.8319 15.9301 20.7343 14.6256V10.7834C20.7395 8.73442 19.995 6.7541 18.6406 5.21448C17.2863 3.67487 15.4154 2.68195 13.3795 2.42228V1.41895C13.3795 1.14357 13.2699 0.879461 13.0749 0.684736C12.8798 0.490011 12.6152 0.380615 12.3394 0.380615C12.0635 0.380615 11.799 0.490011 11.6039 0.684736C11.4089 0.879461 11.2993 1.14357 11.2993 1.41895V2.43784C9.28158 2.71623 7.4333 3.71515 6.09678 5.24959C4.76026 6.78403 4.02606 8.75 4.03017 10.7834V14.6256C3.93259 15.9301 3.57499 17.202 2.97837 18.3667C2.44147 19.2086 1.79427 19.975 1.05396 20.6456L0.789062 20.8789V23.0723H24.0066V20.8789Z" fill="#A6A6A6"/>
</svg>
