<svg width="75" height="14" viewBox="0 0 75 14" fill="none" xmlns="http://www.w3.org/2000/svg">
<path d="M7.33594 6.92578C7.33594 7.61849 7.13542 8.14941 6.73438 8.51855C6.33789 8.8877 5.77507 9.07227 5.0459 9.07227C4.31673 9.07227 3.73568 8.83073 3.30273 8.34766C2.87435 7.86003 2.66016 7.20605 2.66016 6.38574V5.61328C2.66016 4.82031 2.87663 4.18229 3.30957 3.69922C3.74707 3.21159 4.32585 2.96777 5.0459 2.96777C5.78874 2.96777 6.35612 3.1569 6.74805 3.53516C7.14453 3.90885 7.34277 4.43522 7.34277 5.11426H6.27637C6.27637 4.67676 6.17155 4.36458 5.96191 4.17773C5.75228 3.98633 5.44694 3.89062 5.0459 3.89062C4.62663 3.89062 4.2985 4.04557 4.06152 4.35547C3.8291 4.66536 3.71289 5.08919 3.71289 5.62695V6.42676C3.71289 6.96452 3.83138 7.38607 4.06836 7.69141C4.30534 7.99674 4.63118 8.14941 5.0459 8.14941C5.4515 8.14941 5.75684 8.05827 5.96191 7.87598C6.16699 7.68913 6.26953 7.3724 6.26953 6.92578H7.33594ZM9.1543 6.0166C9.1543 5.26009 8.9834 4.55827 8.6416 3.91113C8.2998 3.25944 7.81673 2.73991 7.19238 2.35254C6.56803 1.96061 5.88444 1.76465 5.1416 1.76465C4.41699 1.76465 3.74251 1.9515 3.11816 2.3252C2.49837 2.69889 2.01074 3.21387 1.65527 3.87012C1.2998 4.52637 1.12207 5.24186 1.12207 6.0166C1.12207 6.79134 1.29753 7.50684 1.64844 8.16309C2.00391 8.81934 2.49154 9.33887 3.11133 9.72168C3.73568 10.0999 4.41243 10.2891 5.1416 10.2891C5.87077 10.2891 6.54753 10.0954 7.17188 9.70801C7.80078 9.32064 8.28841 8.79883 8.63477 8.14258C8.98112 7.48633 9.1543 6.77767 9.1543 6.0166ZM0.288086 6.0166C0.288086 5.09603 0.5 4.24154 0.923828 3.45312C1.35221 2.66471 1.94238 2.04492 2.69434 1.59375C3.45085 1.13802 4.2666 0.910156 5.1416 0.910156C6.0166 0.910156 6.83008 1.13802 7.58203 1.59375C8.33398 2.04492 8.92188 2.66471 9.3457 3.45312C9.77409 4.24154 9.98828 5.09603 9.98828 6.0166C9.98828 6.93717 9.77409 7.79167 9.3457 8.58008C8.92188 9.36849 8.33626 9.99284 7.58887 10.4531C6.84147 10.9089 6.02572 11.1367 5.1416 11.1367C4.26204 11.1367 3.44629 10.9089 2.69434 10.4531C1.94694 9.9974 1.35905 9.37533 0.930664 8.58691C0.502279 7.7985 0.288086 6.94173 0.288086 6.0166ZM21.582 11H14.8896V9.8584L18.2051 6.24219C18.6836 5.70898 19.0231 5.26465 19.2236 4.90918C19.4287 4.54915 19.5312 4.18913 19.5312 3.8291C19.5312 3.35514 19.3968 2.97233 19.1279 2.68066C18.8636 2.389 18.5059 2.24316 18.0547 2.24316C17.5169 2.24316 17.0999 2.40723 16.8037 2.73535C16.5075 3.06348 16.3594 3.51237 16.3594 4.08203H14.6982C14.6982 3.47591 14.835 2.93132 15.1084 2.44824C15.3864 1.96061 15.7806 1.58236 16.291 1.31348C16.806 1.0446 17.3984 0.910156 18.0684 0.910156C19.0345 0.910156 19.7956 1.15397 20.3516 1.6416C20.9121 2.12467 21.1924 2.7946 21.1924 3.65137C21.1924 4.14811 21.0511 4.66992 20.7686 5.2168C20.4906 5.75911 20.0326 6.37663 19.3945 7.06934L16.9609 9.67383H21.582V11ZM29.334 6.80957C29.334 8.24056 29.0651 9.32064 28.5273 10.0498C27.9941 10.7744 27.1807 11.1367 26.0869 11.1367C25.0114 11.1367 24.2002 10.7835 23.6533 10.0771C23.111 9.36621 22.833 8.31576 22.8193 6.92578V5.20312C22.8193 3.77214 23.0859 2.69889 23.6191 1.9834C24.1569 1.2679 24.9749 0.910156 26.0732 0.910156C27.1624 0.910156 27.9736 1.25879 28.5068 1.95605C29.0446 2.65332 29.3203 3.69694 29.334 5.08691V6.80957ZM27.6729 4.9502C27.6729 4.01595 27.5452 3.33236 27.29 2.89941C27.0348 2.46191 26.6292 2.24316 26.0732 2.24316C25.5309 2.24316 25.1322 2.45052 24.877 2.86523C24.6217 3.27539 24.4873 3.91797 24.4736 4.79297V7.04883C24.4736 7.97852 24.6035 8.67122 24.8633 9.12695C25.123 9.58268 25.5309 9.81055 26.0869 9.81055C26.6201 9.81055 27.0143 9.60091 27.2695 9.18164C27.5247 8.75781 27.6592 8.09701 27.6729 7.19922V4.9502ZM37.4961 11H30.8037V9.8584L34.1191 6.24219C34.5977 5.70898 34.9372 5.26465 35.1377 4.90918C35.3428 4.54915 35.4453 4.18913 35.4453 3.8291C35.4453 3.35514 35.3109 2.97233 35.042 2.68066C34.7777 2.389 34.4199 2.24316 33.9688 2.24316C33.431 2.24316 33.014 2.40723 32.7178 2.73535C32.4215 3.06348 32.2734 3.51237 32.2734 4.08203H30.6123C30.6123 3.47591 30.749 2.93132 31.0225 2.44824C31.3005 1.96061 31.6947 1.58236 32.2051 1.31348C32.7201 1.0446 33.3125 0.910156 33.9824 0.910156C34.9486 0.910156 35.7096 1.15397 36.2656 1.6416C36.8262 2.12467 37.1064 2.7946 37.1064 3.65137C37.1064 4.14811 36.9652 4.66992 36.6826 5.2168C36.4046 5.75911 35.9466 6.37663 35.3086 7.06934L32.875 9.67383H37.4961V11ZM43.2588 11H41.6045V3.00879L39.1641 3.84277V2.44141L43.0469 1.0127H43.2588V11ZM47.0596 13.2422L46.1641 12.709C46.4284 12.2943 46.6084 11.932 46.7041 11.6221C46.8044 11.3167 46.8568 11.0046 46.8613 10.6855V9.39355H48.3584L48.3516 10.5898C48.347 11.0729 48.224 11.556 47.9824 12.0391C47.7454 12.5267 47.4378 12.9277 47.0596 13.2422ZM59.1182 8.68262H55.2627L54.4561 11H52.6582L56.418 1.04688H57.9697L61.7363 11H59.9316L59.1182 8.68262ZM55.748 7.28809H58.6328L57.1904 3.15918L55.748 7.28809ZM64.6963 11H62.9736V1.04688H64.6963V11ZM74.417 7.75977C74.3167 8.82161 73.9248 9.65104 73.2412 10.248C72.5576 10.8405 71.6484 11.1367 70.5137 11.1367C69.7207 11.1367 69.0212 10.9499 68.415 10.5762C67.8135 10.1979 67.3486 9.66243 67.0205 8.96973C66.6924 8.27702 66.5215 7.47266 66.5078 6.55664V5.62695C66.5078 4.68815 66.6742 3.861 67.0068 3.14551C67.3395 2.43001 67.8158 1.87858 68.4355 1.49121C69.0599 1.10384 69.7799 0.910156 70.5957 0.910156C71.694 0.910156 72.5781 1.20866 73.248 1.80566C73.918 2.40267 74.3076 3.24577 74.417 4.33496H72.6943C72.6123 3.61947 72.4027 3.10449 72.0654 2.79004C71.7327 2.47103 71.2428 2.31152 70.5957 2.31152C69.8438 2.31152 69.265 2.58724 68.8594 3.13867C68.4583 3.68555 68.2533 4.48991 68.2441 5.55176V6.43359C68.2441 7.50911 68.4355 8.32943 68.8184 8.89453C69.2057 9.45964 69.7708 9.74219 70.5137 9.74219C71.1927 9.74219 71.7031 9.58952 72.0449 9.28418C72.3867 8.97884 72.6032 8.4707 72.6943 7.75977H74.417Z" fill="#B7E6FF"/>
</svg>
