<svg width="48" height="48" viewBox="0 0 48 48" fill="none" xmlns="http://www.w3.org/2000/svg">
<path fill-rule="evenodd" clip-rule="evenodd" d="M33.8701 23.5001C33.2301 22.3901 29.7101 16.8201 23.7301 17.0001C18.2001 17.1401 15.0001 22.0001 14.1301 23.5001C13.9514 23.8095 13.9514 24.1907 14.1301 24.5001C14.7601 25.5901 18.1301 31.0001 24.0201 31.0001H24.2701C29.8001 30.8601 33.0101 26.0001 33.8701 24.5001C34.0487 24.1907 34.0487 23.8095 33.8701 23.5001ZM24.0001 27.5001C22.0671 27.5001 20.5001 25.9331 20.5001 24.0001C20.5001 22.0671 22.0671 20.5001 24.0001 20.5001C25.9331 20.5001 27.5001 22.0671 27.5001 24.0001C27.5001 25.9331 25.9331 27.5001 24.0001 27.5001ZM24.0001 25.5001C24.8285 25.5001 25.5001 24.8285 25.5001 24.0001C25.5001 23.1717 24.8285 22.5001 24.0001 22.5001C23.1716 22.5001 22.5001 23.1717 22.5001 24.0001C22.5001 24.8285 23.1716 25.5001 24.0001 25.5001Z" fill="#637381"/>
</svg>
