<svg width="90" height="91" viewBox="0 0 90 91" fill="none" xmlns="http://www.w3.org/2000/svg">
<g filter="url(#filter0_d)">
<path d="M45 66.7058C58.8071 66.7058 70 55.5129 70 41.7058C70 27.8987 58.8071 16.7058 45 16.7058C31.1929 16.7058 20 27.8987 20 41.7058C20 55.5129 31.1929 66.7058 45 66.7058Z" fill="white"/>
</g>
<path d="M50.4419 37.7723H46.6149V35.0523C46.6149 34.2187 47.5009 34.0249 47.9149 34.0249H50.3869V30.3545L47.5529 30.3398C43.6879 30.3398 42.8049 33.0764 42.8049 34.8313V37.7723H40.0049V41.5548H42.8049V51.7647H46.6149V41.5548H49.8509L50.4419 37.7723Z" fill="#3B5998"/>
<defs>
<filter id="filter0_d" x="0" y="0.705811" width="90" height="90" filterUnits="userSpaceOnUse" color-interpolation-filters="sRGB">
<feFlood flood-opacity="0" result="BackgroundImageFix"/>
<feColorMatrix in="SourceAlpha" type="matrix" values="0 0 0 0 0 0 0 0 0 0 0 0 0 0 0 0 0 0 127 0" result="hardAlpha"/>
<feOffset dy="4"/>
<feGaussianBlur stdDeviation="10"/>
<feComposite in2="hardAlpha" operator="out"/>
<feColorMatrix type="matrix" values="0 0 0 0 0 0 0 0 0 0.093287 0 0 0 0 0.233218 0 0 0 0.1 0"/>
<feBlend mode="normal" in2="BackgroundImageFix" result="effect1_dropShadow"/>
<feBlend mode="normal" in="SourceGraphic" in2="effect1_dropShadow" result="shape"/>
</filter>
</defs>
</svg>
