<svg width="90" height="91" viewBox="0 0 90 91" fill="none" xmlns="http://www.w3.org/2000/svg">
<g filter="url(#filter0_d)">
<path d="M45 66.7058C58.8071 66.7058 70 55.5129 70 41.7058C70 27.8987 58.8071 16.7058 45 16.7058C31.1929 16.7058 20 27.8987 20 41.7058C20 55.5129 31.1929 66.7058 45 66.7058Z" fill="white"/>
</g>
<path d="M38.8761 43.2872L38.1101 46.0705L35.3101 46.128C34.4633 44.5923 34.0135 42.8789 33.9994 41.136C33.9853 39.393 34.4073 37.673 35.2291 36.1245L37.7211 36.5696L38.8141 38.9808C38.3232 40.3795 38.3451 41.9006 38.8761 43.2853V43.2872Z" fill="#FBBB00"/>
<path d="M55.8082 39.0508C56.1811 40.9608 56.0131 42.9337 55.3224 44.7579C54.6316 46.5821 53.4441 48.1888 51.8872 49.4058L48.7482 49.25L48.3042 46.5495C49.6004 45.8095 50.5962 44.6585 51.1252 43.289H45.2432V39.0508H55.8092H55.8082Z" fill="#518EF8"/>
<path d="M51.886 49.4058C50.6275 50.3902 49.1619 51.0927 47.5933 51.4636C46.0247 51.8344 44.3915 51.8646 42.8096 51.5518C41.2277 51.2391 39.7359 50.5911 38.4399 49.6539C37.144 48.7166 36.0758 47.5132 35.311 46.1288L38.876 43.2871C39.2107 44.156 39.7362 44.9431 40.4159 45.5936C41.0955 46.244 41.9128 46.742 42.8107 47.0527C43.7086 47.3634 44.6653 47.4794 45.614 47.3925C46.5627 47.3056 47.4804 47.0179 48.303 46.5495L51.886 49.4058Z" fill="#28B446"/>
<path d="M52.0209 32.8055L48.4579 35.6472C47.6232 35.1408 46.6819 34.8242 45.7041 34.7211C44.7263 34.6179 43.7372 34.7308 42.8104 35.0513C41.8837 35.3718 41.043 35.8918 40.3511 36.5724C39.6592 37.2531 39.1338 38.0769 38.814 38.9827L35.231 36.1254C35.9866 34.7042 37.0597 33.4659 38.3713 32.5017C39.6829 31.5374 41.1997 30.8715 42.8103 30.5531C44.4208 30.2346 46.0841 30.2716 47.6781 30.6614C49.272 31.0512 50.7559 31.7839 52.0209 32.8055Z" fill="#F14336"/>
<defs>
<filter id="filter0_d" x="0" y="0.705811" width="90" height="90" filterUnits="userSpaceOnUse" color-interpolation-filters="sRGB">
<feFlood flood-opacity="0" result="BackgroundImageFix"/>
<feColorMatrix in="SourceAlpha" type="matrix" values="0 0 0 0 0 0 0 0 0 0 0 0 0 0 0 0 0 0 127 0" result="hardAlpha"/>
<feOffset dy="4"/>
<feGaussianBlur stdDeviation="10"/>
<feComposite in2="hardAlpha" operator="out"/>
<feColorMatrix type="matrix" values="0 0 0 0 0 0 0 0 0 0.093287 0 0 0 0 0.233218 0 0 0 0.1 0"/>
<feBlend mode="normal" in2="BackgroundImageFix" result="effect1_dropShadow"/>
<feBlend mode="normal" in="SourceGraphic" in2="effect1_dropShadow" result="shape"/>
</filter>
</defs>
</svg>
