<svg width="50" height="50" viewBox="0 0 50 50" fill="none" xmlns="http://www.w3.org/2000/svg">
<path d="M25 50C38.8071 50 50 38.8071 50 25C50 11.1929 38.8071 0 25 0C11.1929 0 0 11.1929 0 25C0 38.8071 11.1929 50 25 50Z" fill="white"/>
<path d="M25 49.5C38.531 49.5 49.5 38.531 49.5 25C49.5 11.469 38.531 0.5 25 0.5C11.469 0.5 0.5 11.469 0.5 25C0.5 38.531 11.469 49.5 25 49.5Z" stroke="#E6E6E6"/>
<path d="M18.8761 27.2949L18.1101 30.1529L15.3101 30.2119C14.4633 28.6351 14.0135 26.8757 13.9994 25.086C13.9853 23.2962 14.4073 21.53 15.2291 19.9399L17.7211 20.3969L18.8141 22.8729C18.3232 24.3091 18.3451 25.8711 18.8761 27.2929V27.2949Z" fill="#FBBB00"/>
<path d="M35.8082 22.9448C36.181 24.9061 36.0131 26.932 35.3224 28.8051C34.6316 30.6783 33.4441 32.3282 31.8872 33.5778L28.7482 33.4178L28.3042 30.6448C29.6004 29.8851 30.5962 28.7031 31.1252 27.2968H25.2432V22.9448H35.8092H35.8082Z" fill="#518EF8"/>
<path d="M31.886 33.5779C30.6275 34.5887 29.1619 35.3101 27.5933 35.6909C26.0247 36.0717 24.3915 36.1026 22.8096 35.7815C21.2277 35.4603 19.7359 34.795 18.4399 33.8326C17.144 32.8702 16.0758 31.6344 15.311 30.2129L18.876 27.2949C19.2107 28.1871 19.7362 28.9954 20.4159 29.6633C21.0955 30.3312 21.9128 30.8425 22.8107 31.1616C23.7086 31.4807 24.6653 31.5997 25.614 31.5105C26.5627 31.4213 27.4804 31.1258 28.303 30.6449L31.886 33.5779Z" fill="#28B446"/>
<path d="M32.021 16.5319L28.458 19.4499C27.6232 18.9299 26.6819 18.6048 25.7041 18.4989C24.7263 18.3929 23.7372 18.5088 22.8105 18.838C21.8837 19.1671 21.043 19.701 20.3511 20.3999C19.6592 21.0989 19.1338 21.9448 18.814 22.8749L15.231 19.9409C15.9866 18.4815 17.0597 17.21 18.3713 16.2199C19.6829 15.2297 21.1997 14.546 22.8103 14.219C24.4208 13.892 26.0842 13.93 27.6781 14.3303C29.272 14.7305 30.756 15.4828 32.021 16.5319Z" fill="#F14336"/>
</svg>
