<svg width="289" height="526" viewBox="0 0 289 526" fill="none" xmlns="http://www.w3.org/2000/svg">
<g clip-path="url(#clip0)">
<path d="M0 0H274C282.284 0 289 6.71573 289 15V511C289 519.284 282.284 526 274 526H0V0Z" fill="url(#paint0_linear)"/>
<g opacity="0.1">
<path d="M43.2957 387.727H-1.7832V515.833H43.2957V387.727Z" fill="#1565C0"/>
<path d="M88.3157 352.319H43.2368V515.833H88.3157V352.319Z" fill="#21D8DE"/>
<path d="M133.395 306.795H88.3159V515.833H133.395V306.795Z" fill="#1565C0"/>
<path d="M178.473 262.549H133.395V515.833H178.473V262.549Z" fill="#21D8DE"/>
<path fill-rule="evenodd" clip-rule="evenodd" d="M210.681 430.642H243.477V364.512H264.4L245.769 335.281L227.079 305.997L208.448 335.281L189.817 364.512H210.681V430.642Z" fill="#1565C0"/>
</g>
<path opacity="0.1" d="M281.02 145.849C271.687 154.83 260.196 161.458 247.565 165.145C234.934 168.832 221.553 169.465 208.607 166.987C195.661 164.509 183.55 158.998 173.347 150.94C163.143 142.883 155.162 132.529 150.111 120.794C145.059 109.06 143.093 96.308 144.386 83.6678C145.68 71.0277 150.192 58.8895 157.525 48.3285C164.858 37.7674 174.784 29.1095 186.424 23.1216C198.065 17.1337 211.06 14.0007 224.26 14V91.2343L281.02 145.849Z" fill="#E5F0F3"/>
<path opacity="0.2" d="M304.522 91.2343H224.259V14C245.546 14.0005 265.961 22.1378 281.013 36.6219C296.065 51.1061 304.522 70.7507 304.522 91.2343Z" fill="#DDF0F5"/>
<path opacity="0.2" d="M304.522 91.2336C304.536 101.378 302.467 111.425 298.433 120.797C294.4 130.17 288.482 138.683 281.019 145.848L224.259 91.2336H304.522Z" fill="white"/>
<path d="M268.59 19L263 24.59L257.41 19L256 20.41L261.59 26L256 31.59L257.41 33L263 27.41L268.59 33L270 31.59L264.41 26L270 20.41L268.59 19Z" fill="white"/>
</g>
<defs>
<linearGradient id="paint0_linear" x1="2.08647e-05" y1="-39.2167" x2="501.044" y2="62.8273" gradientUnits="userSpaceOnUse">
<stop stop-color="#1565C0"/>
<stop offset="1" stop-color="#13F1FC"/>
</linearGradient>
<clipPath id="clip0">
<rect width="289" height="526" fill="white"/>
</clipPath>
</defs>
</svg>
