<svg width="18" height="18" viewBox="0 0 18 18" fill="none" xmlns="http://www.w3.org/2000/svg">
<path d="M10.5171 17.2755H7.48381C7.29375 17.2755 7.10939 17.2108 6.96131 17.092C6.81322 16.9733 6.71031 16.8076 6.66964 16.6225L6.33047 15.0575C5.87802 14.8599 5.449 14.6127 5.05131 14.3207L3.52047 14.8066C3.33928 14.8642 3.14376 14.8583 2.96641 14.7898C2.78905 14.7214 2.64052 14.5945 2.54547 14.4303L1.02547 11.8128C0.931428 11.6484 0.896125 11.4571 0.925342 11.2701C0.954558 11.0831 1.04656 10.9116 1.18631 10.7835L2.37381 9.7036C2.3198 9.2144 2.3198 8.72078 2.37381 8.23159L1.18631 7.15416C1.04637 7.02605 0.954235 6.85434 0.925014 6.66719C0.895793 6.48004 0.931214 6.28854 1.02547 6.12409L2.54214 3.50488C2.63718 3.34066 2.78572 3.21379 2.96307 3.14534C3.14043 3.07689 3.33594 3.07097 3.51714 3.12857L5.04797 3.61453C5.25131 3.465 5.46297 3.32545 5.68131 3.19918C5.89214 3.08122 6.10881 2.97406 6.33047 2.87853L6.67047 1.31514C6.71095 1.13006 6.81367 0.964325 6.9616 0.845419C7.10952 0.726512 7.29378 0.661576 7.48381 0.661377H10.5171C10.7072 0.661576 10.8914 0.726512 11.0394 0.845419C11.1873 0.964325 11.29 1.13006 11.3305 1.31514L11.6738 2.87936C11.9071 2.98237 12.1355 3.09783 12.3563 3.22659C12.5621 3.34538 12.7613 3.4758 12.953 3.61619L14.4846 3.13023C14.6657 3.07284 14.861 3.07887 15.0382 3.14731C15.2154 3.21575 15.3638 3.3425 15.4588 3.50654L16.9755 6.12575C17.1688 6.46385 17.1021 6.89166 16.8146 7.15499L15.6271 8.23491C15.6811 8.7241 15.6811 9.21773 15.6271 9.70692L16.8146 10.7868C17.1021 11.051 17.1688 11.478 16.9755 11.8161L15.4588 14.4353C15.3638 14.5995 15.2152 14.7264 15.0379 14.7948C14.8605 14.8633 14.665 14.8692 14.4838 14.8116L12.953 14.3256C12.5556 14.6175 12.1268 14.8644 11.6746 15.0616L11.3305 16.6225C11.2898 16.8075 11.187 16.973 11.0391 17.0917C10.8912 17.2105 10.7071 17.2753 10.5171 17.2755ZM8.99714 5.6456C8.11309 5.6456 7.26524 5.99569 6.64012 6.61883C6.015 7.24198 5.66381 8.08716 5.66381 8.96842C5.66381 9.84969 6.015 10.6949 6.64012 11.318C7.26524 11.9412 8.11309 12.2912 8.99714 12.2912C9.8812 12.2912 10.729 11.9412 11.3542 11.318C11.9793 10.6949 12.3305 9.84969 12.3305 8.96842C12.3305 8.08716 11.9793 7.24198 11.3542 6.61883C10.729 5.99569 9.8812 5.6456 8.99714 5.6456Z" fill="white" fill-opacity="0.75"/>
</svg>
