<svg width="155" height="159" viewBox="0 0 155 159" fill="none" xmlns="http://www.w3.org/2000/svg">
<g opacity="0.7">
<path opacity="0.1" d="M132.376 135.117C123.392 144.303 112.33 151.082 100.171 154.854C88.0123 158.625 75.1314 159.272 62.6695 156.738C50.2076 154.204 38.5493 148.566 28.7273 140.325C18.9052 132.084 11.2226 121.493 6.35983 109.491C1.49711 97.4886 -0.395614 84.4455 0.849329 71.5169C2.09427 58.5882 6.43846 46.1729 13.4971 35.3708C20.5557 24.5687 30.1109 15.7132 41.3163 9.58863C52.5217 3.46405 65.0314 0.259524 77.7374 0.258789V79.2561L132.376 135.117Z" fill="#E5F0F3"/>
<path opacity="0.2" d="M155 79.2561H77.7373V0.258789C98.2286 0.259323 117.88 8.58234 132.37 23.3971C146.86 38.2118 155 58.3048 155 79.2561Z" fill="#DDF0F5"/>
<path opacity="0.2" d="M155 79.2554C155.014 89.6313 153.022 99.9076 149.139 109.494C145.256 119.08 139.56 127.788 132.376 135.117L77.7373 79.2554H155Z" fill="white"/>
</g>
</svg>
