<svg width="8" height="9" viewBox="0 0 8 9" fill="none" xmlns="http://www.w3.org/2000/svg">
<path d="M3.92885 0.428711C4.97077 0.428711 5.97002 0.842613 6.70677 1.57936C7.44352 2.31611 7.85742 3.31536 7.85742 4.35728C7.85742 5.3992 7.44352 6.39845 6.70677 7.1352C5.97002 7.87195 4.97077 8.28585 3.92885 8.28585C2.88693 8.28585 1.88768 7.87195 1.15093 7.1352C0.41418 6.39845 0.000279427 5.3992 0.000279427 4.35728C0.000279427 3.31536 0.41418 2.31611 1.15093 1.57936C1.88768 0.842613 2.88693 0.428711 3.92885 0.428711ZM2.66457 2.58871L2.61599 2.54728C2.55628 2.50597 2.48539 2.48383 2.41278 2.48383C2.34017 2.48383 2.26928 2.50597 2.20957 2.54728L2.15957 2.58871L2.11885 2.63871C2.07769 2.69835 2.05565 2.7691 2.05565 2.84157C2.05565 2.91403 2.07769 2.98479 2.11885 3.04443L2.16028 3.09443L3.42457 4.358L2.16171 5.61943L2.12028 5.66943C2.07912 5.72907 2.05708 5.79982 2.05708 5.87228C2.05708 5.94475 2.07912 6.0155 2.12028 6.07514L2.16171 6.12514L2.21171 6.16585C2.27135 6.20701 2.3421 6.22906 2.41456 6.22906C2.48703 6.22906 2.55778 6.20701 2.61742 6.16585L2.66742 6.12514L3.92885 4.863L5.19314 6.12657L5.24242 6.168C5.30206 6.20916 5.37281 6.2312 5.44528 6.2312C5.51774 6.2312 5.5885 6.20916 5.64814 6.168L5.69814 6.12657L5.73885 6.07657C5.78001 6.01693 5.80206 5.94618 5.80206 5.87371C5.80206 5.80125 5.78001 5.7305 5.73885 5.67085L5.69814 5.62085L4.43385 4.358L5.69956 3.09371L5.74099 3.04443C5.78231 2.98471 5.80444 2.91383 5.80444 2.84121C5.80444 2.7686 5.78231 2.69771 5.74099 2.638L5.69956 2.58871L5.65028 2.54728C5.59057 2.50597 5.51968 2.48383 5.44706 2.48383C5.37445 2.48383 5.30356 2.50597 5.24385 2.54728L5.19456 2.58871L3.92885 3.853L2.66457 2.58871Z" fill="#DF0101"/>
</svg>
