<svg width="10" height="10" viewBox="0 0 10 10" fill="none" xmlns="http://www.w3.org/2000/svg">
<path d="M1.16326 5.64331L6.08159 0.724972C6.43875 0.367704 6.9232 0.166948 7.42838 0.16687C7.93355 0.166792 8.41807 0.367398 8.77534 0.724556C9.13261 1.08171 9.33336 1.56617 9.33344 2.07134C9.33352 2.57652 9.13291 3.06104 8.77575 3.41831L3.85659 8.33664C3.57002 8.62361 3.21082 8.82726 2.81742 8.9258L1.29159 9.30664C1.13986 9.34453 0.980906 9.3425 0.830196 9.30074C0.679486 9.25898 0.542156 9.17891 0.431572 9.06832C0.320988 8.95774 0.240919 8.82041 0.199156 8.6697C0.157393 8.51899 0.15536 8.36003 0.193255 8.2083L0.574089 6.6833C0.672422 6.28914 0.875755 5.92997 1.16326 5.64331Z" fill="#1565C0"/>
</svg>
