<svg width="13" height="18" viewBox="0 0 13 18" fill="none" xmlns="http://www.w3.org/2000/svg">
<path d="M6.99992 0.666626V5.66663C6.99992 6.10865 7.17551 6.53258 7.48807 6.84514C7.80064 7.1577 8.22456 7.33329 8.66659 7.33329H12.7666C12.2699 7.51663 11.8133 7.79496 11.4683 8.14163L6.42659 13.2183C6.13343 13.5135 5.92405 13.8813 5.81992 14.2841L5.38242 15.9758C5.32183 16.2038 5.30839 16.4418 5.34292 16.6752C5.37745 16.9087 5.45923 17.1326 5.58325 17.3333H1.58325C1.25173 17.3333 0.933789 17.2016 0.699368 16.9672C0.464948 16.7328 0.333252 16.4148 0.333252 16.0833V1.91663C0.333252 1.58511 0.464948 1.26716 0.699368 1.03274C0.933789 0.798322 1.25173 0.666626 1.58325 0.666626H6.99992Z" fill="#A6A6A6"/>
</svg>
