<svg width="12" height="16" viewBox="0 0 12 16" fill="none" xmlns="http://www.w3.org/2000/svg">
<path d="M6 0V4.5C6 4.89782 6.15804 5.27936 6.43934 5.56066C6.72064 5.84196 7.10218 6 7.5 6H12V14.5C12 14.8978 11.842 15.2794 11.5607 15.5607C11.2794 15.842 10.8978 16 10.5 16H5.743C6.48987 15.0956 6.92804 13.976 6.99351 12.8049C7.05898 11.6338 6.74833 10.4724 6.10692 9.49034C5.46551 8.50829 4.52694 7.75702 3.42827 7.34623C2.32959 6.93544 1.12837 6.88666 0 7.207V1.5C0 1.10218 0.158035 0.720644 0.43934 0.43934C0.720644 0.158035 1.10218 0 1.5 0H6Z" fill="#A6A6A6"/>
</svg>
