<svg width="17" height="14" viewBox="0 0 17 14" fill="none" xmlns="http://www.w3.org/2000/svg">
<path d="M12.2917 1.41656e-08C12.7668 -5.83515e-05 13.2242 0.180246 13.5715 0.504474C13.9187 0.828702 14.13 1.27268 14.1625 1.74667L14.1667 1.875V11.25C14.1665 11.3541 14.2053 11.4545 14.2754 11.5315C14.3456 11.6084 14.442 11.6563 14.5457 11.6657C14.6494 11.6751 14.7528 11.6454 14.8357 11.5823C14.9185 11.5193 14.9748 11.4275 14.9933 11.325L15 11.25V2.51167C15.435 2.5603 15.8392 2.75955 16.1427 3.0749C16.4461 3.39026 16.6298 3.80184 16.6617 4.23833L16.6667 4.375V10.625C16.6667 11.3168 16.402 11.9824 15.9269 12.4852C15.4518 12.988 14.8023 13.29 14.1117 13.3292L13.9583 13.3333H2.70833C2.01655 13.3334 1.35098 13.0687 0.848141 12.5936C0.345306 12.1185 0.0433322 11.469 0.00416678 10.7783L1.41656e-08 10.625V1.875C-5.83516e-05 1.39989 0.180246 0.942482 0.504474 0.595206C0.828703 0.247929 1.27268 0.0366851 1.74667 0.00416678L1.875 1.41656e-08H12.2917ZM6.04 5.83333H3.12333C2.95757 5.83333 2.7986 5.89918 2.68139 6.01639C2.56418 6.1336 2.49833 6.29257 2.49833 6.45833V9.375C2.49833 9.72 2.77833 10 3.12333 10H6.04C6.20576 10 6.36473 9.93415 6.48194 9.81694C6.59915 9.69973 6.665 9.54076 6.665 9.375V6.45833C6.665 6.29257 6.59915 6.1336 6.48194 6.01639C6.36473 5.89918 6.20576 5.83333 6.04 5.83333ZM11.0433 8.75H8.96167L8.87667 8.75583C8.71979 8.77742 8.57696 8.85774 8.47703 8.98058C8.3771 9.10342 8.32752 9.25961 8.33831 9.4176C8.3491 9.57558 8.41947 9.72358 8.53517 9.83169C8.65088 9.9398 8.80331 9.99995 8.96167 10H11.0433L11.1283 9.99417C11.2852 9.97258 11.428 9.89225 11.528 9.76941C11.6279 9.64658 11.6775 9.49038 11.6667 9.3324C11.6559 9.17441 11.5855 9.02642 11.4698 8.91831C11.3541 8.8102 11.2017 8.75005 11.0433 8.75ZM5.415 7.08333V8.75H3.74833V7.08333H5.415ZM11.0417 5.83333L8.96 5.8375L8.875 5.8425C8.7166 5.86255 8.57188 5.94245 8.47053 6.06583C8.36919 6.1892 8.3189 6.34668 8.32998 6.50596C8.34107 6.66523 8.4127 6.81423 8.53016 6.92237C8.64762 7.03051 8.80202 7.08959 8.96167 7.0875L11.0442 7.08333L11.1283 7.0775C11.2853 7.05591 11.4282 6.97552 11.5281 6.85259C11.628 6.72966 11.6776 6.57337 11.6667 6.41532C11.6558 6.25727 11.5852 6.10926 11.4694 6.00122C11.3535 5.89318 11.2009 5.83317 11.0425 5.83333H11.0417ZM11.0425 2.92H3.12333L3.03833 2.92583C2.88146 2.94742 2.73862 3.02775 2.63869 3.15058C2.53876 3.27342 2.48919 3.42961 2.49998 3.5876C2.51077 3.74558 2.58113 3.89358 2.69684 4.00169C2.81255 4.1098 2.96498 4.16995 3.12333 4.17H11.0433L11.1283 4.165C11.2866 4.14493 11.4311 4.06514 11.5324 3.94195C11.6337 3.81877 11.6841 3.66151 11.6732 3.5024C11.6624 3.34328 11.5911 3.19433 11.474 3.08606C11.3569 2.97779 11.2028 2.91838 11.0433 2.92H11.0425Z" fill="white" fill-opacity="0.75"/>
</svg>
