<svg width="10" height="18" viewBox="0 0 10 18" fill="none" xmlns="http://www.w3.org/2000/svg">
<path d="M8.33236 6.08342H9.99902C9.99902 3.71925 7.70319 2.64091 5.83236 2.39258V0.666748H4.16569V2.39258C2.29486 2.64091 -0.000976562 3.71925 -0.000976562 6.08342C-0.000976562 8.33842 2.22069 9.51092 4.16569 9.77508V13.9167C2.95902 13.7076 1.66569 13.0634 1.66569 11.9167H-0.000976562C-0.000976562 14.0742 2.01986 15.3492 4.16569 15.6134V17.3334H5.83236V15.6084C7.70319 15.3601 9.99902 14.2809 9.99902 11.9167C9.99902 9.55258 7.70319 8.47425 5.83236 8.22591V4.08341C6.94069 4.28258 8.33236 4.86758 8.33236 6.08342ZM1.66569 6.08342C1.66569 4.86758 3.05736 4.28258 4.16569 4.08341V8.08258C3.02319 7.87175 1.66569 7.24758 1.66569 6.08342ZM8.33236 11.9167C8.33236 13.1326 6.94069 13.7176 5.83236 13.9167V9.91675C6.94069 10.1159 8.33236 10.7009 8.33236 11.9167Z" fill="white" fill-opacity="0.75"/>
</svg>
