<svg width="20" height="15" viewBox="0 0 20 15" fill="none" xmlns="http://www.w3.org/2000/svg">
<path d="M18.7361 14.9854H1.25317C0.914964 14.9854 0.622281 14.8618 0.375126 14.6146C0.127972 14.3675 0.00439453 14.0748 0.00439453 13.7366V1.24878C0.00439453 0.910569 0.127972 0.617886 0.375126 0.370732C0.622281 0.123577 0.914964 0 1.25317 0H18.7361C19.0743 0 19.367 0.123577 19.6142 0.370732C19.8613 0.617886 19.9849 0.910569 19.9849 1.24878V13.7366C19.9849 14.0878 19.8613 14.3837 19.6142 14.6244C19.367 14.865 19.0743 14.9854 18.7361 14.9854ZM6.87269 9.48293V9.15122C8.12147 8.65691 8.74586 7.27154 8.74586 4.99512C8.74586 4.17561 8.45643 3.55447 7.87757 3.13171C7.2987 2.70894 6.54748 2.49756 5.62391 2.49756C4.70033 2.49756 3.94911 2.70894 3.37025 3.13171C2.79139 3.55447 2.50196 4.17561 2.50196 4.99512C2.50196 7.2065 3.12635 8.58537 4.37513 9.13171V9.48293C3.46456 9.63902 2.71984 9.93171 2.14098 10.361C1.56212 10.7902 1.26618 11.278 1.25317 11.8244C1.25317 11.9805 1.39301 12.1073 1.67269 12.2049C1.95236 12.3024 2.36212 12.3707 2.90196 12.4098C3.44179 12.4488 3.88732 12.4715 4.23854 12.478C4.58976 12.4846 5.05155 12.4878 5.62391 12.4878C6.19626 12.4878 6.65805 12.4846 7.00927 12.478C7.36049 12.4715 7.80602 12.4488 8.34586 12.4098C8.8857 12.3707 9.29545 12.3024 9.57513 12.2049C9.8548 12.1073 9.99464 11.9805 9.99464 11.8244C9.98163 11.278 9.68244 10.7902 9.09708 10.361C8.51171 9.93171 7.77025 9.63902 6.87269 9.48293ZM18.1117 2.49756H13.1166C12.9475 2.49756 12.8011 2.55935 12.6776 2.68293C12.554 2.8065 12.4922 2.95285 12.4922 3.12195C12.4922 3.29106 12.554 3.4374 12.6776 3.56098C12.8011 3.68455 12.9475 3.74634 13.1166 3.74634H18.1117C18.2808 3.74634 18.4272 3.68455 18.5507 3.56098C18.6743 3.4374 18.7361 3.29106 18.7361 3.12195C18.7361 2.95285 18.6743 2.8065 18.5507 2.68293C18.4272 2.55935 18.2808 2.49756 18.1117 2.49756ZM12.4922 6.86829C12.4922 7.0374 12.554 7.18374 12.6776 7.30732C12.8011 7.43089 12.9475 7.49268 13.1166 7.49268H15.6142C15.7833 7.49268 15.9296 7.43089 16.0532 7.30732C16.1768 7.18374 16.2385 7.0374 16.2385 6.86829C16.2385 6.69919 16.1768 6.55285 16.0532 6.42927C15.9296 6.30569 15.7833 6.2439 15.6142 6.2439H13.1166C12.9475 6.2439 12.8011 6.30569 12.6776 6.42927C12.554 6.55285 12.4922 6.69919 12.4922 6.86829ZM18.1117 9.99024H13.1166C12.9475 9.99024 12.8011 10.052 12.6776 10.1756C12.554 10.2992 12.4922 10.4455 12.4922 10.6146C12.4922 10.7837 12.554 10.9301 12.6776 11.0537C12.8011 11.1772 12.9475 11.239 13.1166 11.239H18.1117C18.2808 11.239 18.4272 11.1772 18.5507 11.0537C18.6743 10.9301 18.7361 10.7837 18.7361 10.6146C18.7361 10.4455 18.6743 10.2992 18.5507 10.1756C18.4272 10.052 18.2808 9.99024 18.1117 9.99024Z" fill="white" fill-opacity="0.75"/>
</svg>
