<svg width="90" height="90" viewBox="0 0 90 90" fill="none" xmlns="http://www.w3.org/2000/svg">
<g filter="url(#filter0_d)">
<rect x="20" y="10" width="50" height="50" rx="15" fill="#E7F2EF"/>
</g>
<path fill-rule="evenodd" clip-rule="evenodd" d="M50.2381 28.215H50.4771C53.6177 28.215 56.1667 30.84 56.1667 34.06V40.5C56.1667 43.72 53.6177 46.3333 50.4771 46.3333H39.6896C36.5489 46.3333 34 43.72 34 40.5V34.06C34 30.84 36.5489 28.215 39.6896 28.215H39.9286C39.9513 26.815 40.4861 25.5083 41.4534 24.5283C42.432 23.5367 43.6837 23.035 45.0947 23C47.9168 23 50.204 25.3333 50.2381 28.215ZM42.6482 25.7767C42.0109 26.43 41.6582 27.2933 41.6354 28.215H48.5312C48.4971 26.3017 46.9722 24.75 45.0947 24.75C44.2185 24.75 43.3081 25.1117 42.6482 25.7767ZM49.4074 32.7067C49.8853 32.7067 50.2608 32.31 50.2608 31.8317V30.4784C50.2608 30 49.8853 29.6034 49.4074 29.6034C48.9408 29.6034 48.5539 30 48.5539 30.4784V31.8317C48.5539 32.31 48.9408 32.7067 49.4074 32.7067ZM41.5102 31.8317C41.5102 32.31 41.1347 32.7067 40.6568 32.7067C40.1902 32.7067 39.8034 32.31 39.8034 31.8317V30.4784C39.8034 30 40.1902 29.6034 40.6568 29.6034C41.1347 29.6034 41.5102 30 41.5102 30.4784V31.8317Z" fill="#0985B9"/>
<defs>
<filter id="filter0_d" x="0" y="0" width="90" height="90" filterUnits="userSpaceOnUse" color-interpolation-filters="sRGB">
<feFlood flood-opacity="0" result="BackgroundImageFix"/>
<feColorMatrix in="SourceAlpha" type="matrix" values="0 0 0 0 0 0 0 0 0 0 0 0 0 0 0 0 0 0 127 0" result="hardAlpha"/>
<feOffset dy="10"/>
<feGaussianBlur stdDeviation="10"/>
<feColorMatrix type="matrix" values="0 0 0 0 0.0235294 0 0 0 0 0.301961 0 0 0 0 0.227451 0 0 0 0.03 0"/>
<feBlend mode="normal" in2="BackgroundImageFix" result="effect1_dropShadow"/>
<feBlend mode="normal" in="SourceGraphic" in2="effect1_dropShadow" result="shape"/>
</filter>
</defs>
</svg>
